<?xml version="1.0" encoding="UTF-8" standalone="no"?>
<!-- Created with Inkscape (http://www.inkscape.org/) -->

<svg
   xmlns:dc="http://purl.org/dc/elements/1.1/"
   xmlns:cc="http://creativecommons.org/ns#"
   xmlns:rdf="http://www.w3.org/1999/02/22-rdf-syntax-ns#"
   xmlns:svg="http://www.w3.org/2000/svg"
   xmlns="http://www.w3.org/2000/svg"
   xmlns:sodipodi="http://sodipodi.sourceforge.net/DTD/sodipodi-0.dtd"
   xmlns:inkscape="http://www.inkscape.org/namespaces/inkscape"
   id="svg3336"
   version="1.1"
   inkscape:version="0.91 r13725"
   xml:space="preserve"
   width="375"
   height="375"
   viewBox="0 0 375 375"
   sodipodi:docname="selection.svg"
   inkscape:export-filename="D:\docs\GeomAlgo\UnityProject\GeoAlg\Assets\TheDivide\Sprites\selection.png"
   inkscape:export-xdpi="23.498695"
   inkscape:export-ydpi="23.498695"><metadata
     id="metadata3342"><rdf:RDF><cc:Work
         rdf:about=""><dc:format>image/svg+xml</dc:format><dc:type
           rdf:resource="http://purl.org/dc/dcmitype/StillImage" /><dc:title /></cc:Work></rdf:RDF></metadata><defs
     id="defs3340"><clipPath
       clipPathUnits="userSpaceOnUse"
       id="clipPath3350"><path
         d="M 0,300 300,300 300,0 0,0 0,300 Z"
         id="path3352"
         inkscape:connector-curvature="0" /></clipPath><clipPath
       clipPathUnits="userSpaceOnUse"
       id="clipPath3358"><path
         d="m 9.34326,246.997 287.72074,0 0,-194.0175 -287.72074,0 0,194.0175 z"
         id="path3360"
         inkscape:connector-curvature="0" /></clipPath><clipPath
       clipPathUnits="userSpaceOnUse"
       id="clipPath3374"><path
         d="M 0,300 300,300 300,0 0,0 0,300 Z"
         id="path3376"
         inkscape:connector-curvature="0" /></clipPath><clipPath
       clipPathUnits="userSpaceOnUse"
       id="clipPath3406"><path
         d="M 0,300 300,300 300,0 0,0 0,300 Z"
         id="path3408"
         inkscape:connector-curvature="0" /></clipPath><clipPath
       clipPathUnits="userSpaceOnUse"
       id="clipPath3446"><path
         d="M 0,300 300,300 300,0 0,0 0,300 Z"
         id="path3448"
         inkscape:connector-curvature="0" /></clipPath><clipPath
       clipPathUnits="userSpaceOnUse"
       id="clipPath3454"><path
         d="m 123.273,213.427 118.248,0 0,-126.2805 -118.248,0 0,126.2805 z"
         id="path3456"
         inkscape:connector-curvature="0" /></clipPath><clipPath
       clipPathUnits="userSpaceOnUse"
       id="clipPath3470"><path
         d="M 0,300 300,300 300,0 0,0 0,300 Z"
         id="path3472"
         inkscape:connector-curvature="0" /></clipPath><clipPath
       clipPathUnits="userSpaceOnUse"
       id="clipPath3478"><path
         d="m 126.821,209.639 111.154,0 0,-118.7054 -111.154,0 0,118.7054 z"
         id="path3480"
         inkscape:connector-curvature="0" /></clipPath><clipPath
       clipPathUnits="userSpaceOnUse"
       id="clipPath3494"><path
         d="M 0,300 300,300 300,0 0,0 0,300 Z"
         id="path3496"
         inkscape:connector-curvature="0" /></clipPath><clipPath
       clipPathUnits="userSpaceOnUse"
       id="clipPath3502"><path
         d="m 126.821,191.63 111.743,0 0,-100.6964 -111.743,0 0,100.6964 z"
         id="path3504"
         inkscape:connector-curvature="0" /></clipPath><clipPath
       clipPathUnits="userSpaceOnUse"
       id="clipPath3518"><path
         d="M 0,300 300,300 300,0 0,0 0,300 Z"
         id="path3520"
         inkscape:connector-curvature="0" /></clipPath><clipPath
       clipPathUnits="userSpaceOnUse"
       id="clipPath3526"><path
         d="m 169.993,113.742 42.232,0 0,-18.534 -42.232,0 0,18.534 z"
         id="path3528"
         inkscape:connector-curvature="0" /></clipPath><clipPath
       clipPathUnits="userSpaceOnUse"
       id="clipPath3542"><path
         d="M 0,300 300,300 300,0 0,0 0,300 Z"
         id="path3544"
         inkscape:connector-curvature="0" /></clipPath><clipPath
       clipPathUnits="userSpaceOnUse"
       id="clipPath3566"><path
         d="M 0,300 300,300 300,0 0,0 0,300 Z"
         id="path3568"
         inkscape:connector-curvature="0" /></clipPath></defs><sodipodi:namedview
     pagecolor="#ffffff"
     bordercolor="#666666"
     borderopacity="1"
     objecttolerance="10"
     gridtolerance="10"
     guidetolerance="10"
     inkscape:pageopacity="0"
     inkscape:pageshadow="2"
     inkscape:window-width="1920"
     inkscape:window-height="1003"
     id="namedview3338"
     showgrid="false"
     inkscape:zoom="2.2613333"
     inkscape:cx="117.62972"
     inkscape:cy="227.3685"
     inkscape:window-x="-9"
     inkscape:window-y="-9"
     inkscape:window-maximized="1"
     inkscape:current-layer="g3344" /><g
     id="g3344"
     inkscape:groupmode="layer"
     inkscape:label="soldier_icon"
     transform="matrix(1.25,0,0,-1.25,0,375)"><rect
       style="fill:none;stroke:#1c1c1c;stroke-width:6.4;stroke-miterlimit:4;stroke-dasharray:none;stroke-opacity:1"
       id="rect4263"
       width="300"
       height="300"
       x="1.4150944"
       y="-300"
       transform="scale(1,-1)"
       rx="10" /></g></svg>