<?xml version="1.0" encoding="UTF-8" standalone="no"?>
<!-- Created with Inkscape (http://www.inkscape.org/) -->

<svg
   xmlns:dc="http://purl.org/dc/elements/1.1/"
   xmlns:cc="http://creativecommons.org/ns#"
   xmlns:rdf="http://www.w3.org/1999/02/22-rdf-syntax-ns#"
   xmlns:svg="http://www.w3.org/2000/svg"
   xmlns="http://www.w3.org/2000/svg"
   xmlns:sodipodi="http://sodipodi.sourceforge.net/DTD/sodipodi-0.dtd"
   xmlns:inkscape="http://www.inkscape.org/namespaces/inkscape"
   width="210mm"
   height="297mm"
   viewBox="0 0 744.09448819 1052.3622047"
   id="svg6058"
   version="1.1"
   inkscape:version="0.91 r13725"
   sodipodi:docname="shield.svg">
  <defs
     id="defs6060">
    <clipPath
       clipPathUnits="userSpaceOnUse"
       id="clipPath6706">
      <g
         transform="translate(7.477563,2.492521)"
         id="g6708">
        <path
           style="fill:#000000;fill-opacity:1;fill-rule:evenodd;stroke:#000000;stroke-width:1.41485858px;stroke-linecap:butt;stroke-linejoin:miter;stroke-opacity:1"
           d="m 252.57206,467.96833 -35.4953,19.34404 -41.84939,-19.80578 -52.01815,0 c 0,0 -3.48315,60.87939 3.52886,110.8511 7.01201,49.97172 88.16338,90.80795 88.16338,90.80795 0,0 81.34517,-62.97781 86.1626,-93.63766 7.83265,-49.84968 3.52611,-107.55965 3.52611,-107.55965 z"
           id="path6710"
           inkscape:connector-curvature="0"
           sodipodi:nodetypes="ccccscscc" />
      </g>
    </clipPath>
  </defs>
  <sodipodi:namedview
     id="base"
     pagecolor="#ffffff"
     bordercolor="#666666"
     borderopacity="1.0"
     inkscape:pageopacity="0.0"
     inkscape:pageshadow="2"
     inkscape:zoom="1.6048009"
     inkscape:cx="289.89385"
     inkscape:cy="486.04885"
     inkscape:document-units="px"
     inkscape:current-layer="layer1"
     showgrid="false"
     inkscape:window-width="1920"
     inkscape:window-height="1003"
     inkscape:window-x="-9"
     inkscape:window-y="-9"
     inkscape:window-maximized="1" />
  <metadata
     id="metadata6063">
    <rdf:RDF>
      <cc:Work
         rdf:about="">
        <dc:format>image/svg+xml</dc:format>
        <dc:type
           rdf:resource="http://purl.org/dc/dcmitype/StillImage" />
        <dc:title></dc:title>
      </cc:Work>
    </rdf:RDF>
  </metadata>
  <g
     inkscape:label="Layer 1"
     inkscape:groupmode="layer"
     id="layer1">
    <g
       id="g6654"
       transform="translate(125.24918,58.574243)"
       clip-path="url(#clipPath6706)"
       style="stroke:none;stroke-linejoin:miter;stroke-opacity:1">
      <rect
         y="468.15732"
         x="101.62552"
         height="203.60161"
         width="249.70593"
         id="rect5954"
         style="color:#000000;clip-rule:nonzero;display:inline;overflow:visible;visibility:visible;opacity:1;isolation:auto;mix-blend-mode:normal;color-interpolation:sRGB;color-interpolation-filters:linearRGB;solid-color:#000000;solid-opacity:1;fill:#9f632d;fill-opacity:1;fill-rule:nonzero;stroke:none;stroke-width:6.74399996;stroke-linecap:round;stroke-linejoin:miter;stroke-miterlimit:4;stroke-dasharray:none;stroke-dashoffset:0;stroke-opacity:1;color-rendering:auto;image-rendering:auto;shape-rendering:auto;text-rendering:auto;enable-background:accumulate" />
      <path
         sodipodi:nodetypes="ccsssssssssccsssssssssc"
         inkscape:connector-curvature="0"
         id="rect5956"
         d="m 116.67634,468.047 -1.48242,0.2207 c 0,0 2.41184,16.30326 3.08789,24.78125 0.69055,8.65983 3.30133,16.09398 3.71094,24.49804 0.42392,8.69772 3.70401,19.51908 3.0957,27.52344 -0.29829,3.92503 -2.18584,7.5797 -4.2793,11.32227 -2.09345,3.74256 -4.38697,7.56136 -5.29882,11.86328 -1.72348,8.13096 -6.12299,16.4615 -5.27344,25.67383 0.431,4.67368 2.7595,8.77812 5.09961,12.89062 2.34011,4.1125 4.70136,8.23824 5.42773,12.91602 1.46913,9.46104 -1.48832,22.04308 -2.48047,30.82031 -0.97758,8.64844 -3.08789,21.07617 -3.08789,21.07617 l 1.47852,0.25195 c 0,0 2.113,-12.43186 3.09961,-21.16015 0.97205,-8.59951 4.01835,-21.26461 2.47265,-31.21875 -0.78103,-5.02982 -3.27006,-9.32007 -5.60742,-13.42774 -2.33736,-4.10767 -4.5156,-8.02786 -4.9082,-12.28515 -0.79766,-8.64966 3.306,-12.9357 5.09138,-21.35876 0.84258,-3.9751 3.1881,-11.542 5.29534,-15.30921 2.10723,-3.76721 4.13793,-7.61409 4.46679,-11.94141 0.64601,-8.50032 -2.68563,-19.33552 -3.09375,-27.70898 -0.42242,-8.66709 -3.04298,-16.11958 -3.71484,-24.54492 -0.68635,-8.60718 -3.09961,-24.88281 -3.09961,-24.88281 z"
         style="color:#000000;font-style:normal;font-variant:normal;font-weight:normal;font-stretch:normal;font-size:medium;line-height:normal;font-family:sans-serif;text-indent:0;text-align:start;text-decoration:none;text-decoration-line:none;text-decoration-style:solid;text-decoration-color:#000000;letter-spacing:normal;word-spacing:normal;text-transform:none;direction:ltr;block-progression:tb;writing-mode:lr-tb;baseline-shift:baseline;text-anchor:start;white-space:normal;clip-rule:nonzero;display:inline;overflow:visible;visibility:visible;opacity:1;isolation:auto;mix-blend-mode:normal;color-interpolation:sRGB;color-interpolation-filters:linearRGB;solid-color:#000000;solid-opacity:1;fill:#824c22;fill-opacity:1;fill-rule:nonzero;stroke:none;stroke-width:1.5;stroke-linecap:butt;stroke-linejoin:miter;stroke-miterlimit:4;stroke-dasharray:none;stroke-dashoffset:0;stroke-opacity:1;color-rendering:auto;image-rendering:auto;shape-rendering:auto;text-rendering:auto;enable-background:accumulate" />
      <path
         sodipodi:nodetypes="ccsssssssssccsssssssssc"
         inkscape:connector-curvature="0"
         id="path5959"
         d="m 110.92439,468.00989 -1.97852,0.29492 c 0,0 2.4116,16.30721 3.08594,24.76367 0.66492,8.33837 -1.25108,17.95271 0.95703,26.54687 2.29436,8.92984 5.52519,16.87776 4.92188,24.81641 -0.29525,3.88492 -2.08643,8.33144 -4.00391,12.52148 -1.91748,4.19005 -3.95208,8.08577 -4.63867,11.2461 -0.58388,2.68754 -2.63418,7.31874 -4.17969,12.12695 -1.54551,4.80821 -2.67453,9.88371 -1.0293,13.91211 3.0027,7.35218 8.99804,16.13936 10.45704,25.53515 1.45636,9.37886 -1.48498,21.94706 -2.48047,30.75391 -0.97609,8.63514 -3.08594,21.06445 -3.08594,21.06445 l 1.9707,0.33399 c 0,0 2.11345,-12.43222 3.10156,-21.17383 0.96871,-8.56989 4.02916,-21.24883 2.47071,-31.28516 -1.55583,-10.01938 -7.72739,-18.9947 -10.58203,-25.98437 -1.28344,-3.14254 -0.41834,-7.87715 1.08203,-12.54492 1.50037,-4.66778 3.54678,-9.1765 4.22851,-12.31446 0.57902,-2.66518 2.56264,-6.59586 4.50391,-10.83789 1.94127,-4.24203 3.84777,-8.83375 4.17969,-13.20117 0.65099,-8.56603 -3.03717,-15.77639 -5.28794,-24.53657 -2.04508,-7.9596 1.0348,-17.77356 0.33731,-26.52035 -0.68808,-8.62871 -4.02984,-25.51729 -4.02984,-25.51729 z"
         style="color:#000000;font-style:normal;font-variant:normal;font-weight:normal;font-stretch:normal;font-size:medium;line-height:normal;font-family:sans-serif;text-indent:0;text-align:start;text-decoration:none;text-decoration-line:none;text-decoration-style:solid;text-decoration-color:#000000;letter-spacing:normal;word-spacing:normal;text-transform:none;direction:ltr;block-progression:tb;writing-mode:lr-tb;baseline-shift:baseline;text-anchor:start;white-space:normal;clip-rule:nonzero;display:inline;overflow:visible;visibility:visible;opacity:1;isolation:auto;mix-blend-mode:normal;color-interpolation:sRGB;color-interpolation-filters:linearRGB;solid-color:#000000;solid-opacity:1;fill:#000000;fill-opacity:1;fill-rule:nonzero;stroke:none;stroke-width:2;stroke-linecap:butt;stroke-linejoin:miter;stroke-miterlimit:4;stroke-dasharray:none;stroke-dashoffset:0;stroke-opacity:1;color-rendering:auto;image-rendering:auto;shape-rendering:auto;text-rendering:auto;enable-background:accumulate" />
      <path
         sodipodi:nodetypes="ccssssssssssccssssssssssc"
         inkscape:connector-curvature="0"
         id="path5961"
         d="m 126.43025,468.08411 -0.99024,0.14648 c 0,0 2.41208,16.29736 3.08985,24.79688 0.679,8.51501 0.51076,15.33356 0.92773,23.88866 0.21336,4.37749 1.86383,8.86616 3.35742,13.27735 1.49359,4.41118 1.58898,9.20255 1.28574,13.19265 -0.62017,8.16044 -2.24983,15.36015 -4.01425,23.6843 -0.85064,4.01311 -3.42744,8.43652 -5.71875,12.97656 -2.29132,4.54005 -4.30887,9.21818 -3.88086,13.85938 0.4246,4.60429 2.72675,8.67932 5.0664,12.79101 2.33966,4.1117 4.72155,8.26356 5.45704,13 1.48188,9.54323 -1.48972,22.13911 -2.47852,30.88672 -0.97909,8.66175 -3.08984,21.0918 -3.08984,21.0918 l 0.98632,0.16601 c 0,0 2.11255,-12.42954 3.09766,-21.14453 0.9754,-8.62913 4.00559,-21.28038 2.47266,-31.15234 -0.77193,-4.97114 -3.23836,-9.23332 -5.57617,-13.3418 -2.33782,-4.10847 -4.54046,-8.06198 -4.93946,-12.38867 -0.3956,-4.28979 1.50528,-6.80324 3.77735,-11.30515 2.27206,-4.5019 4.90089,-10.96805 5.80468,-15.23196 1.74444,-8.22989 4.63539,-15.93507 5.26953,-24.2793 0.32392,-4.26223 -1.07353,-8.70059 -2.57226,-13.12695 -1.49873,-4.42636 -3.10203,-8.84581 -3.30469,-13.0039 -0.41506,-8.51607 -0.24628,-15.34782 -0.92969,-23.91797 -0.68463,-8.58564 -3.09765,-24.86523 -3.09765,-24.86523 z"
         style="color:#000000;font-style:normal;font-variant:normal;font-weight:normal;font-stretch:normal;font-size:medium;line-height:normal;font-family:sans-serif;text-indent:0;text-align:start;text-decoration:none;text-decoration-line:none;text-decoration-style:solid;text-decoration-color:#000000;letter-spacing:normal;word-spacing:normal;text-transform:none;direction:ltr;block-progression:tb;writing-mode:lr-tb;baseline-shift:baseline;text-anchor:start;white-space:normal;clip-rule:nonzero;display:inline;overflow:visible;visibility:visible;opacity:1;isolation:auto;mix-blend-mode:normal;color-interpolation:sRGB;color-interpolation-filters:linearRGB;solid-color:#000000;solid-opacity:1;fill:#3a1d10;fill-opacity:1;fill-rule:nonzero;stroke:none;stroke-width:1;stroke-linecap:butt;stroke-linejoin:miter;stroke-miterlimit:4;stroke-dasharray:none;stroke-dashoffset:0;stroke-opacity:1;color-rendering:auto;image-rendering:auto;shape-rendering:auto;text-rendering:auto;enable-background:accumulate" />
      <path
         sodipodi:nodetypes="ccsssssssssccsssssssssc"
         inkscape:connector-curvature="0"
         id="path5963"
         d="m 142.92439,468.00989 -1.97852,0.29492 c 0,0 2.4116,16.30721 3.08594,24.76367 0.67559,8.4722 0.50936,17.76365 0.92773,26.34765 0.4212,8.64192 2.16157,16.64447 1.54883,24.70703 -0.29536,3.88653 -2.03115,9.08471 -3.96875,13.13224 -1.9376,4.04753 -4.06997,6.93523 -4.98633,11.25839 -1.77145,8.35733 -2.39721,16.40912 -1.56445,25.43945 0.4374,4.74309 2.79029,8.87693 5.13086,12.99024 2.34057,4.1133 4.67922,8.21098 5.39649,12.83007 1.45636,9.37886 -1.48498,21.94706 -2.48047,30.75391 -0.97609,8.63514 -3.08594,21.06445 -3.08594,21.06445 l 1.9707,0.33399 c 0,0 3.04172,-12.89636 4.02984,-21.63797 0.96871,-8.56989 3.10088,-20.78469 1.54243,-30.82102 -0.79015,-5.08849 -3.29786,-9.40485 -5.63477,-13.51171 -2.3369,-4.10687 -4.4927,-7.99766 -4.8789,-12.18555 -0.81445,-8.83165 -0.20616,-16.64511 1.53125,-24.8418 0.83807,-3.95385 2.87836,-7.96382 4.83203,-12.04492 1.95366,-4.0811 3.82836,-8.24357 4.16015,-12.60938 0.64158,-8.44211 -1.13604,-16.52581 -1.54687,-24.95507 -0.41366,-8.48716 -0.24287,-17.79718 -0.92969,-26.41015 -0.68807,-8.62871 -3.10156,-24.89844 -3.10156,-24.89844 z"
         style="color:#000000;font-style:normal;font-variant:normal;font-weight:normal;font-stretch:normal;font-size:medium;line-height:normal;font-family:sans-serif;text-indent:0;text-align:start;text-decoration:none;text-decoration-line:none;text-decoration-style:solid;text-decoration-color:#000000;letter-spacing:normal;word-spacing:normal;text-transform:none;direction:ltr;block-progression:tb;writing-mode:lr-tb;baseline-shift:baseline;text-anchor:start;white-space:normal;clip-rule:nonzero;display:inline;overflow:visible;visibility:visible;opacity:1;isolation:auto;mix-blend-mode:normal;color-interpolation:sRGB;color-interpolation-filters:linearRGB;solid-color:#000000;solid-opacity:1;fill:#3a1d10;fill-opacity:1;fill-rule:nonzero;stroke:none;stroke-width:2;stroke-linecap:butt;stroke-linejoin:miter;stroke-miterlimit:4;stroke-dasharray:none;stroke-dashoffset:0;stroke-opacity:1;color-rendering:auto;image-rendering:auto;shape-rendering:auto;text-rendering:auto;enable-background:accumulate" />
      <path
         sodipodi:nodetypes="ccssssssssssssccssssssssssssc"
         inkscape:connector-curvature="0"
         id="path5965"
         d="m 164.78181,467.85559 -1.69531,0.60352 c 0,0 1.44835,4.05203 2.98047,9.16797 1.53212,5.11593 3.14068,11.31945 3.46875,15.43359 0.65727,8.24243 -2.90633,17.53203 -2.47657,26.3496 0.41658,8.547 0.74777,12.01797 1.54688,24.84375 0.40171,6.4474 0.99384,10.43302 1.26172,13.78516 0.26788,3.35214 0.22756,6.06453 -0.625,10.18945 -0.80834,3.91091 -2.95175,8.43241 -5.64242,12.66025 -2.69067,4.22784 -5.95725,8.22504 -5.51188,13.0546 0.43484,4.71533 2.7768,8.83819 5.11719,12.95117 2.34038,4.11298 4.68925,8.22266 5.41015,12.86523 0.71001,4.5724 -0.68392,10.29391 -2.4414,15.94922 -1.75749,5.65531 -3.85783,11.21711 -4.3711,15.75781 -1.00905,8.92687 1.24805,20.4629 1.24805,20.4629 l 1.76758,-0.3418 c 0,0 -2.1817,-11.46809 -1.22656,-19.91797 0.46883,-4.14767 2.52326,-9.70602 4.30078,-15.42578 1.77751,-5.71976 3.2974,-11.62653 2.5,-16.76172 -0.78651,-5.06502 -3.28596,-9.37133 -5.62305,-13.47852 -2.33709,-4.10718 -4.50186,-8.00895 -4.89062,-12.22461 -0.37823,-4.10142 1.82354,-8.19571 4.47461,-12.36132 2.65106,-4.16562 5.72346,-8.33953 6.65039,-12.82422 0.88269,-4.27069 0.93174,-7.24985 0.65625,-10.69727 -0.2755,-3.44742 -0.86007,-7.37014 -1.25782,-13.7539 -0.79978,-12.83656 -1.13141,-16.29613 -1.54687,-24.82032 -0.40227,-8.25359 3.17975,-17.56156 2.47461,-26.40429 -0.35314,-4.42845 -1.99252,-10.64255 -3.53906,-15.80664 -1.54655,-5.16409 -3.00977,-9.25586 -3.00977,-9.25586 z"
         style="color:#000000;font-style:normal;font-variant:normal;font-weight:normal;font-stretch:normal;font-size:medium;line-height:normal;font-family:sans-serif;text-indent:0;text-align:start;text-decoration:none;text-decoration-line:none;text-decoration-style:solid;text-decoration-color:#000000;letter-spacing:normal;word-spacing:normal;text-transform:none;direction:ltr;block-progression:tb;writing-mode:lr-tb;baseline-shift:baseline;text-anchor:start;white-space:normal;clip-rule:nonzero;display:inline;overflow:visible;visibility:visible;opacity:1;isolation:auto;mix-blend-mode:normal;color-interpolation:sRGB;color-interpolation-filters:linearRGB;solid-color:#000000;solid-opacity:1;fill:#492310;fill-opacity:1;fill-rule:nonzero;stroke:none;stroke-width:1.79999995;stroke-linecap:butt;stroke-linejoin:miter;stroke-miterlimit:4;stroke-dasharray:none;stroke-dashoffset:0;stroke-opacity:1;color-rendering:auto;image-rendering:auto;shape-rendering:auto;text-rendering:auto;enable-background:accumulate" />
      <path
         sodipodi:nodetypes="cssssssssccsssssssscc"
         inkscape:connector-curvature="0"
         id="path5967"
         d="m 185.13533,468.13879 c 0,0 -0.37695,16.26817 0.3125,24.91407 0.69044,8.65849 3.30148,17.95257 3.71093,26.35351 0.42017,8.62065 2.71144,16.6319 2.09582,24.73242 -0.59941,7.88722 -6.83645,15.54771 -8.65039,24.10547 -1.76493,8.32655 -3.2489,16.65906 -2.41613,25.68945 0.43228,4.68757 3.31226,8.47126 5.65246,12.58392 2.3402,4.11266 4.14838,8.56059 4.87293,13.22663 1.49283,9.61373 1.58746,21.58649 0.61524,30.1875 -0.9567,8.46364 -6.13672,21.53125 -6.13672,21.53125 l 1.48632,0.5918 c 0,0 5.23274,-13.03026 6.24024,-21.94336 0.99197,-8.77574 1.44593,-21.03063 -0.0761,-30.83209 -0.78286,-5.04155 -3.82105,-9.11705 -6.15832,-13.22455 -2.33727,-4.10751 -4.51298,-8.02417 -4.9043,-12.26758 -0.81443,-8.83159 0.0998,-16.98348 1.84375,-25.21094 1.69492,-7.99628 8.02283,-15.69897 8.67774,-24.31641 0.63869,-8.40416 -1.13306,-16.48111 -1.54493,-24.93164 -0.42257,-8.67022 -3.04288,-17.97566 -3.71484,-26.40234 -0.67296,-8.43926 -0.30664,-24.75 -0.30664,-24.75 z"
         style="color:#000000;font-style:normal;font-variant:normal;font-weight:normal;font-stretch:normal;font-size:medium;line-height:normal;font-family:sans-serif;text-indent:0;text-align:start;text-decoration:none;text-decoration-line:none;text-decoration-style:solid;text-decoration-color:#000000;letter-spacing:normal;word-spacing:normal;text-transform:none;direction:ltr;block-progression:tb;writing-mode:lr-tb;baseline-shift:baseline;text-anchor:start;white-space:normal;clip-rule:nonzero;display:inline;overflow:visible;visibility:visible;opacity:1;isolation:auto;mix-blend-mode:normal;color-interpolation:sRGB;color-interpolation-filters:linearRGB;solid-color:#000000;solid-opacity:1;fill:#3a1d10;fill-opacity:1;fill-rule:nonzero;stroke:none;stroke-width:1.60000002;stroke-linecap:butt;stroke-linejoin:miter;stroke-miterlimit:4;stroke-dasharray:none;stroke-dashoffset:0;stroke-opacity:1;color-rendering:auto;image-rendering:auto;shape-rendering:auto;text-rendering:auto;enable-background:accumulate" />
      <path
         sodipodi:nodetypes="csssssssssccssssssssscc"
         inkscape:connector-curvature="0"
         id="path5969"
         d="m 207.13533,468.13879 c 0,0 -0.37695,16.26817 0.3125,24.91407 0.69044,8.65849 2.6451,17.95257 3.05455,26.35351 0.42016,8.62065 2.16445,16.6319 1.54883,24.73242 -0.59953,7.88873 -6.18091,15.86223 -7.994,24.41602 -1.7641,8.3226 -2.70177,16.35019 -1.86914,25.3789 0.43228,4.68757 2.76526,8.79945 5.10546,12.91211 2.34021,4.11266 4.69538,8.2324 5.41993,12.89844 0.72525,4.67054 -0.0821,10.33793 -1.22461,15.91797 -1.14248,5.58003 -3.15583,11.06243 -3.65832,15.50781 -0.98945,8.75338 -0.6952,20.57226 -0.6952,20.57227 l 1.59961,0.0332 c 0,0 0.25767,-11.80243 1.23242,-20.42578 0.47961,-4.243 1.93307,-9.72686 3.08789,-15.36719 1.15483,-5.64033 2.0224,-11.44733 1.24024,-16.48438 -0.78286,-5.04155 -3.27406,-9.33585 -5.61133,-13.44335 -2.33727,-4.10751 -4.51298,-8.02417 -4.9043,-12.26758 -0.81459,-8.83328 0.099,-16.66897 1.84375,-24.90039 1.69577,-8.00023 8.02294,-16.01102 8.67774,-24.62696 0.6387,-8.40416 -1.13305,-16.48111 -1.54492,-24.93164 -0.42258,-8.67022 -3.04289,-17.97566 -3.71485,-26.40234 -0.67297,-8.43926 -0.30664,-24.75 -0.30664,-24.75 z"
         style="color:#000000;font-style:normal;font-variant:normal;font-weight:normal;font-stretch:normal;font-size:medium;line-height:normal;font-family:sans-serif;text-indent:0;text-align:start;text-decoration:none;text-decoration-line:none;text-decoration-style:solid;text-decoration-color:#000000;letter-spacing:normal;word-spacing:normal;text-transform:none;direction:ltr;block-progression:tb;writing-mode:lr-tb;baseline-shift:baseline;text-anchor:start;white-space:normal;clip-rule:nonzero;display:inline;overflow:visible;visibility:visible;opacity:1;isolation:auto;mix-blend-mode:normal;color-interpolation:sRGB;color-interpolation-filters:linearRGB;solid-color:#000000;solid-opacity:1;fill:#000000;fill-opacity:1;fill-rule:nonzero;stroke:none;stroke-width:1.60000002;stroke-linecap:butt;stroke-linejoin:miter;stroke-miterlimit:4;stroke-dasharray:none;stroke-dashoffset:0;stroke-opacity:1;color-rendering:auto;image-rendering:auto;shape-rendering:auto;text-rendering:auto;enable-background:accumulate" />
      <path
         sodipodi:nodetypes="ccssssssssccssssssssc"
         inkscape:connector-curvature="0"
         id="path5971"
         d="m 230.92439,468.00989 -1.97851,0.29492 c 0,0 2.41159,16.30721 3.08594,24.76367 0.67558,8.4722 0.50936,17.76365 0.92773,26.34765 0.4212,8.64192 2.16157,16.64447 1.54883,24.70703 -0.61319,8.06855 -3.46778,15.7088 -5.24219,24.08008 -1.71314,8.08229 -6.13554,16.4439 -5.27734,25.75 0.4374,4.74309 2.79029,8.87693 5.13086,12.99024 2.34056,4.1133 4.67922,8.21098 5.39648,12.83007 1.49309,9.61536 2.19542,23.1642 1.23242,31.6836 -0.94359,8.3477 -6.70508,19.84961 -6.70508,19.84961 l 1.78321,0.90429 c 0,0 5.88955,-11.50025 6.91015,-20.52929 1.0012,-8.85732 0.2776,-22.41502 -1.24414,-32.21485 -0.79015,-5.08849 -3.29786,-9.40485 -5.63476,-13.51171 -2.33691,-4.10687 -4.49271,-7.99766 -4.87891,-12.18555 -0.78901,-8.55587 4.10484,-16.56926 5.90053,-25.04099 1.73445,-8.18276 3.98178,-16.01899 4.62291,-24.45511 0.64158,-8.44211 -1.68303,-15.86942 -2.09387,-24.29868 -0.41365,-8.48716 0.30412,-18.45357 -0.38269,-27.06654 -0.68808,-8.62871 -3.10157,-24.89844 -3.10157,-24.89844 z"
         style="color:#000000;font-style:normal;font-variant:normal;font-weight:normal;font-stretch:normal;font-size:medium;line-height:normal;font-family:sans-serif;text-indent:0;text-align:start;text-decoration:none;text-decoration-line:none;text-decoration-style:solid;text-decoration-color:#000000;letter-spacing:normal;word-spacing:normal;text-transform:none;direction:ltr;block-progression:tb;writing-mode:lr-tb;baseline-shift:baseline;text-anchor:start;white-space:normal;clip-rule:nonzero;display:inline;overflow:visible;visibility:visible;opacity:1;isolation:auto;mix-blend-mode:normal;color-interpolation:sRGB;color-interpolation-filters:linearRGB;solid-color:#000000;solid-opacity:1;fill:#000000;fill-opacity:1;fill-rule:nonzero;stroke:none;stroke-width:2;stroke-linecap:butt;stroke-linejoin:miter;stroke-miterlimit:4;stroke-dasharray:none;stroke-dashoffset:0;stroke-opacity:1;color-rendering:auto;image-rendering:auto;shape-rendering:auto;text-rendering:auto;enable-background:accumulate" />
      <path
         sodipodi:nodetypes="ccsssssssssccsssssssssc"
         inkscape:connector-curvature="0"
         id="path5973"
         d="m 241.024,467.99622 -2.17773,0.32226 c 0,0 2.41228,16.30997 3.08594,24.75781 0.32064,4.02104 -0.73932,8.45795 -1.88086,12.99024 -1.14155,4.53228 -2.36225,9.15706 -2.14258,13.66406 0.43204,8.86447 4.61816,16.86785 4.02344,24.69336 -0.62822,8.26618 -1.02964,15.57894 -2.76368,23.75976 -1.70901,8.06281 -6.14094,16.43568 -5.27929,25.7793 0.43996,4.77085 2.80182,8.91762 5.14258,13.03125 2.34075,4.11362 4.6731,8.19929 5.38671,12.79492 1.47578,9.50386 0.66015,22.08919 -0.3164,30.72852 -0.95521,8.45044 -5.20703,20.88281 -5.20703,20.88281 l 2.08007,0.7168 c 0,0 4.30351,-12.42722 5.3125,-21.35352 0.98765,-8.73741 1.84374,-21.40118 0.30469,-31.3125 -0.79379,-5.11196 -3.7493,-9.87597 -6.08602,-13.98251 -2.33673,-4.10654 -4.04401,-7.54876 -4.42765,-11.7089 -0.78555,-8.51836 3.44237,-16.62988 5.24219,-25.12109 1.77482,-8.37322 2.17858,-15.80838 2.80469,-24.04688 0.65959,-8.67917 -3.61955,-16.76204 -4.01954,-24.96875 -0.19635,-4.02859 0.93411,-8.4774 2.07813,-13.01952 1.14402,-4.54212 2.30196,-9.18158 1.94141,-13.70313 -0.68877,-8.63732 -3.10157,-24.90429 -3.10157,-24.90429 z"
         style="color:#000000;font-style:normal;font-variant:normal;font-weight:normal;font-stretch:normal;font-size:medium;line-height:normal;font-family:sans-serif;text-indent:0;text-align:start;text-decoration:none;text-decoration-line:none;text-decoration-style:solid;text-decoration-color:#000000;letter-spacing:normal;word-spacing:normal;text-transform:none;direction:ltr;block-progression:tb;writing-mode:lr-tb;baseline-shift:baseline;text-anchor:start;white-space:normal;clip-rule:nonzero;display:inline;overflow:visible;visibility:visible;opacity:1;isolation:auto;mix-blend-mode:normal;color-interpolation:sRGB;color-interpolation-filters:linearRGB;solid-color:#000000;solid-opacity:1;fill:#492310;fill-opacity:1;fill-rule:nonzero;stroke:none;stroke-width:2.20000005;stroke-linecap:butt;stroke-linejoin:miter;stroke-miterlimit:4;stroke-dasharray:none;stroke-dashoffset:0;stroke-opacity:1;color-rendering:auto;image-rendering:auto;shape-rendering:auto;text-rendering:auto;enable-background:accumulate" />
      <path
         sodipodi:nodetypes="cccccsssssssssccssssssssscccc"
         inkscape:connector-curvature="0"
         id="path5975"
         d="m 246.82478,468.02551 -1.77929,0.26367 c 0,0 2.41091,16.30642 3.08594,24.77149 l 0,0.004 0.002,0.004 c 0.37392,4.17671 1.76058,9.61344 2.90625,14.69922 1.14567,5.08577 1.98791,9.88964 1.51953,12.22265 -1.13341,5.64554 -1.3622,16.39065 -1.95117,24.14063 -0.61459,8.08692 -3.47173,15.73189 -5.24414,24.09375 -1.71728,8.10175 -6.13013,16.45015 -5.27539,25.71875 0.43484,4.71533 2.7768,8.83819 5.11718,12.95117 2.34039,4.11298 4.68925,8.22266 5.41016,12.86523 1.51349,9.74676 4.03965,22.05071 3.08789,30.47071 -0.46715,4.13272 -2.59355,9.45364 -4.61719,13.68359 -2.02363,4.22995 -3.92187,7.38086 -3.92187,7.38086 l 1.54101,0.92773 c 0,0 1.94112,-3.21945 4.00391,-7.53125 2.06279,-4.31179 4.26825,-9.70412 4.7832,-14.25976 1.01244,-8.95674 -1.59828,-21.2808 -3.09961,-30.94922 -0.7865,-5.06502 -2.19198,-9.80893 -4.52906,-13.91612 -2.33709,-4.10718 -5.81465,-10.41571 -6.20341,-14.63137 -0.79246,-8.59338 3.67333,-13.88501 5.4649,-22.33728 1.73644,-8.19218 4.63761,-15.91429 5.27734,-24.33203 0.59556,-7.83668 0.86826,-18.67185 1.92187,-23.91992 0.62513,-3.11378 -0.37611,-7.85353 -1.52929,-12.97265 -1.15318,-5.11913 -2.51858,-10.54902 -2.86914,-14.46485 l 0,0.01 c -0.68739,-8.62009 -3.10157,-24.89258 -3.10157,-24.89258 z"
         style="color:#000000;font-style:normal;font-variant:normal;font-weight:normal;font-stretch:normal;font-size:medium;line-height:normal;font-family:sans-serif;text-indent:0;text-align:start;text-decoration:none;text-decoration-line:none;text-decoration-style:solid;text-decoration-color:#000000;letter-spacing:normal;word-spacing:normal;text-transform:none;direction:ltr;block-progression:tb;writing-mode:lr-tb;baseline-shift:baseline;text-anchor:start;white-space:normal;clip-rule:nonzero;display:inline;overflow:visible;visibility:visible;opacity:1;isolation:auto;mix-blend-mode:normal;color-interpolation:sRGB;color-interpolation-filters:linearRGB;solid-color:#000000;solid-opacity:1;fill:#3a1d10;fill-opacity:1;fill-rule:nonzero;stroke:none;stroke-width:1.79999995;stroke-linecap:butt;stroke-linejoin:miter;stroke-miterlimit:4;stroke-dasharray:none;stroke-dashoffset:0;stroke-opacity:1;color-rendering:auto;image-rendering:auto;shape-rendering:auto;text-rendering:auto;enable-background:accumulate" />
      <path
         sodipodi:nodetypes="ccsssssssssccssssssssscc"
         inkscape:connector-curvature="0"
         id="path5977"
         d="m 276.47908,468.07629 -1.08789,0.16211 c 0,0 2.41241,16.29971 3.08984,24.79493 0.67812,8.50386 0.51043,17.7991 0.92774,26.36132 0.41887,8.59407 2.1661,16.61376 1.54687,24.76172 -0.61947,8.15124 -3.48458,15.81176 -5.25,24.14062 -1.73172,8.16991 -6.11215,16.47793 -5.26953,25.61524 0.42588,4.61817 2.73448,8.69674 5.07422,12.80859 2.33975,4.11186 4.71751,8.25966 5.45117,12.98438 0.73078,4.70613 -0.38721,10.3101 -1.83984,15.82226 -1.45263,5.51217 -3.23053,10.92123 -3.73242,15.36133 -0.99311,8.78576 -0.002,20.91406 -0.002,20.91406 l 1.09571,-0.0879 c 0,0 -0.97305,-12.11215 -0.002,-20.70312 0.48021,-4.24827 2.24156,-9.64965 3.70508,-15.20313 1.46352,-5.55348 2.63796,-11.27003 1.86133,-16.27148 -0.77375,-4.98288 -1.93152,-9.25107 -4.26925,-13.35938 -2.33773,-4.10831 -4.53587,-8.05437 -4.93359,-12.36719 -0.80458,-8.72467 3.25407,-17.11984 5.0312,-25.50395 1.74344,-8.22518 3.54266,-15.71295 4.1775,-24.06636 0.63509,-8.35672 -0.0397,-16.42328 -0.45289,-24.90039 -0.41472,-8.50894 -1.33939,-17.81323 -2.02367,-26.39453 -0.68499,-8.58995 -3.09766,-24.86914 -3.09766,-24.86914 z"
         style="color:#000000;font-style:normal;font-variant:normal;font-weight:normal;font-stretch:normal;font-size:medium;line-height:normal;font-family:sans-serif;text-indent:0;text-align:start;text-decoration:none;text-decoration-line:none;text-decoration-style:solid;text-decoration-color:#000000;letter-spacing:normal;word-spacing:normal;text-transform:none;direction:ltr;block-progression:tb;writing-mode:lr-tb;baseline-shift:baseline;text-anchor:start;white-space:normal;clip-rule:nonzero;display:inline;overflow:visible;visibility:visible;opacity:1;isolation:auto;mix-blend-mode:normal;color-interpolation:sRGB;color-interpolation-filters:linearRGB;solid-color:#000000;solid-opacity:1;fill:#492310;fill-opacity:1;fill-rule:nonzero;stroke:none;stroke-width:1.10000002;stroke-linecap:butt;stroke-linejoin:miter;stroke-miterlimit:4;stroke-dasharray:none;stroke-dashoffset:0;stroke-opacity:1;color-rendering:auto;image-rendering:auto;shape-rendering:auto;text-rendering:auto;enable-background:accumulate" />
      <path
         sodipodi:nodetypes="ccssssssssssccssssssssssc"
         inkscape:connector-curvature="0"
         id="path5979"
         d="m 293.024,467.99622 -2.17773,0.32226 c 0,0 2.41228,16.30997 3.08594,24.75781 0.67502,8.46516 0.94476,18.19249 1.36337,26.78134 0.42172,8.65255 1.72253,16.21414 1.11124,24.25772 -0.62869,8.27239 -1.0331,16.52104 -2.76368,24.68555 -0.83159,3.9233 -2.92207,7.84307 -4.76171,11.94922 -1.83965,4.10614 -3.43206,8.44305 -2.99219,13.21289 0.43996,4.77085 2.80182,8.91762 5.14258,13.03125 2.34075,4.11362 4.6731,8.19929 5.38671,12.79492 0.69937,4.50384 -0.74891,9.95611 -2.58007,15.37109 -1.83117,5.41499 -4.02283,10.7559 -4.54297,15.35743 -1.01893,9.01417 1.5625,21.46093 1.5625,21.46093 l 2.15429,-0.43945 c 0,0 -2.47652,-12.41282 -1.53125,-20.77539 0.46197,-4.08684 2.58286,-9.40249 4.44141,-14.89844 1.85855,-5.49595 3.47797,-11.21031 2.66992,-16.41406 -0.79379,-5.11196 -2.87412,-8.1256 -5.21084,-12.23214 -2.33673,-4.10654 -4.91919,-9.29913 -5.30283,-13.45927 -0.38373,-4.16115 1.45267,-10.7274 3.24814,-14.73493 1.79546,-4.00753 3.54583,-5.41331 4.46866,-9.76702 1.77828,-8.38954 2.181,-16.74429 2.80664,-24.97656 0.64302,-8.4611 -1.13656,-16.55013 -1.54688,-24.96875 -0.41341,-8.48231 -0.24231,-17.7921 -0.92968,-26.41211 -0.68877,-8.63732 -3.10157,-24.90429 -3.10157,-24.90429 z"
         style="color:#000000;font-style:normal;font-variant:normal;font-weight:normal;font-stretch:normal;font-size:medium;line-height:normal;font-family:sans-serif;text-indent:0;text-align:start;text-decoration:none;text-decoration-line:none;text-decoration-style:solid;text-decoration-color:#000000;letter-spacing:normal;word-spacing:normal;text-transform:none;direction:ltr;block-progression:tb;writing-mode:lr-tb;baseline-shift:baseline;text-anchor:start;white-space:normal;clip-rule:nonzero;display:inline;overflow:visible;visibility:visible;opacity:1;isolation:auto;mix-blend-mode:normal;color-interpolation:sRGB;color-interpolation-filters:linearRGB;solid-color:#000000;solid-opacity:1;fill:#3a1d10;fill-opacity:1;fill-rule:nonzero;stroke:none;stroke-width:2.20000005;stroke-linecap:butt;stroke-linejoin:miter;stroke-miterlimit:4;stroke-dasharray:none;stroke-dashoffset:0;stroke-opacity:1;color-rendering:auto;image-rendering:auto;shape-rendering:auto;text-rendering:auto;enable-background:accumulate" />
      <path
         sodipodi:nodetypes="ccssssssssccssssssssc"
         inkscape:connector-curvature="0"
         id="path5981"
         d="m 306.67635,468.047 -1.48242,0.2207 c 0,0 1.53664,17.61604 2.2127,26.09403 0.67699,8.48979 0.9456,18.00237 1.36338,26.57426 0.4199,8.61534 2.60276,15.09475 1.98642,23.20475 -0.60963,8.02156 -5.00501,15.68002 -6.79297,24.11524 -1.74202,8.21846 -4.56822,16.54702 -3.72657,25.67383 0.431,4.67368 2.7595,8.77812 5.09961,12.89062 2.34011,4.1125 4.70137,8.23824 5.42774,12.91602 1.46912,9.46104 -1.48833,22.04308 -2.48047,30.82031 -0.97759,8.64844 -3.08789,21.07617 -3.08789,21.07617 l 1.47851,0.25195 c 0,0 2.113,-12.43186 3.09961,-21.16015 0.97206,-8.59951 4.01835,-21.26461 2.47266,-31.21875 -0.78104,-5.02982 -3.27006,-9.32007 -5.60742,-13.42774 -2.33736,-4.10767 -4.51561,-8.02786 -4.90821,-12.28515 -0.80554,-8.73518 1.93238,-16.89101 3.69922,-25.22657 1.7209,-8.11882 6.17757,-15.82744 6.82227,-24.31054 0.63798,-8.39468 -1.13474,-16.46994 -1.54688,-24.92578 -0.41424,-8.49927 -0.24427,-17.80502 -0.92968,-26.40039 -0.68636,-8.60718 -3.09961,-24.88281 -3.09961,-24.88281 z"
         style="color:#000000;font-style:normal;font-variant:normal;font-weight:normal;font-stretch:normal;font-size:medium;line-height:normal;font-family:sans-serif;text-indent:0;text-align:start;text-decoration:none;text-decoration-line:none;text-decoration-style:solid;text-decoration-color:#000000;letter-spacing:normal;word-spacing:normal;text-transform:none;direction:ltr;block-progression:tb;writing-mode:lr-tb;baseline-shift:baseline;text-anchor:start;white-space:normal;clip-rule:nonzero;display:inline;overflow:visible;visibility:visible;opacity:1;isolation:auto;mix-blend-mode:normal;color-interpolation:sRGB;color-interpolation-filters:linearRGB;solid-color:#000000;solid-opacity:1;fill:#492310;fill-opacity:1;fill-rule:nonzero;stroke:none;stroke-width:1.5;stroke-linecap:butt;stroke-linejoin:miter;stroke-miterlimit:4;stroke-dasharray:none;stroke-dashoffset:0;stroke-opacity:1;color-rendering:auto;image-rendering:auto;shape-rendering:auto;text-rendering:auto;enable-background:accumulate" />
      <path
         sodipodi:nodetypes="ccssssssssccssssssssc"
         inkscape:connector-curvature="0"
         id="path5983"
         d="m 323.07283,467.9884 -2.27539,0.33789 c 0,0 3.28782,17.84194 3.96113,26.28549 0.67474,8.46163 0.50706,17.75248 0.92578,26.34375 0.42198,8.65787 1.28421,15.12182 0.67364,23.15592 -0.59594,7.84148 -4.93069,16.14368 -6.74791,24.71693 -1.74678,8.24091 -4.61808,15.95975 -3.77162,25.13853 0.44124,4.78473 2.80954,8.937 5.15039,13.05079 2.34084,4.11378 4.66711,8.1954 5.3789,12.77929 1.44871,9.32955 -1.48296,21.89023 -2.48047,30.71485 -0.97518,8.62715 -3.08593,21.05468 -3.08593,21.05468 l 2.26758,0.38477 c 0,0 2.11449,-12.43205 3.10351,-21.18164 0.9667,-8.55212 4.03486,-21.24054 2.46875,-31.32617 -0.79561,-5.1237 -3.97406,-8.36214 -6.31069,-12.46852 -2.33663,-4.10638 -3.81867,-9.07273 -4.20103,-13.21898 -0.80075,-8.6832 1.31214,-16.79431 3.07422,-25.10743 1.69164,-7.98079 6.78888,-15.7001 7.44727,-24.36328 0.64374,-8.47058 -1.13487,-16.5613 -1.54493,-24.97461 -0.41329,-8.47989 -0.24203,-17.79052 -0.92968,-26.41405 -0.68911,-8.64163 -3.10352,-24.90821 -3.10352,-24.90821 z"
         style="color:#000000;font-style:normal;font-variant:normal;font-weight:normal;font-stretch:normal;font-size:medium;line-height:normal;font-family:sans-serif;text-indent:0;text-align:start;text-decoration:none;text-decoration-line:none;text-decoration-style:solid;text-decoration-color:#000000;letter-spacing:normal;word-spacing:normal;text-transform:none;direction:ltr;block-progression:tb;writing-mode:lr-tb;baseline-shift:baseline;text-anchor:start;white-space:normal;clip-rule:nonzero;display:inline;overflow:visible;visibility:visible;opacity:1;isolation:auto;mix-blend-mode:normal;color-interpolation:sRGB;color-interpolation-filters:linearRGB;solid-color:#000000;solid-opacity:1;fill:#3a1d10;fill-opacity:1;fill-rule:nonzero;stroke:none;stroke-width:2.29999995;stroke-linecap:butt;stroke-linejoin:miter;stroke-miterlimit:4;stroke-dasharray:none;stroke-dashoffset:0;stroke-opacity:1;color-rendering:auto;image-rendering:auto;shape-rendering:auto;text-rendering:auto;enable-background:accumulate" />
      <path
         inkscape:connector-curvature="0"
         id="path5985"
         d="m 334.47908,468.07629 -1.08789,0.16211 c 0,0 2.41241,16.29971 3.08984,24.79493 0.67812,8.50386 0.51043,17.7991 0.92774,26.36132 0.41887,8.59407 2.1661,16.61376 1.54687,24.76172 -0.30292,3.98599 -2.13812,7.74924 -4.15625,11.57226 -2.01812,3.82303 -4.21426,7.69866 -5.11523,11.94922 -1.76824,8.34218 -2.07585,17.25782 -1.24805,26.23438 0.42588,4.61817 2.73448,8.69674 5.07422,12.80859 2.33975,4.11186 4.71751,8.25966 5.45117,12.98438 1.47934,9.52678 -1.48905,22.11951 -2.47851,30.87304 -0.97879,8.65909 -3.08985,21.08789 -3.08985,21.08789 l 1.08399,0.18555 c 0,0 2.11224,-12.43079 3.09765,-21.14844 0.97474,-8.6232 4.00815,-21.27762 2.47266,-31.16601 -0.77375,-4.98288 -3.2443,-9.25107 -5.58203,-13.35938 -2.33773,-4.10831 -4.53587,-8.05437 -4.93359,-12.36719 -0.8194,-8.88542 -0.51211,-17.69245 1.22851,-25.90429 0.85346,-4.02646 2.98387,-7.8226 5.01172,-11.66406 2.02785,-3.84147 3.95702,-7.73562 4.28125,-12.00196 0.63509,-8.35672 -1.13371,-16.42328 -1.54687,-24.90039 -0.41472,-8.50894 -0.24541,-17.81323 -0.92969,-26.39453 -0.68499,-8.58995 -3.09766,-24.86914 -3.09766,-24.86914 z"
         style="color:#000000;font-style:normal;font-variant:normal;font-weight:normal;font-stretch:normal;font-size:medium;line-height:normal;font-family:sans-serif;text-indent:0;text-align:start;text-decoration:none;text-decoration-line:none;text-decoration-style:solid;text-decoration-color:#000000;letter-spacing:normal;word-spacing:normal;text-transform:none;direction:ltr;block-progression:tb;writing-mode:lr-tb;baseline-shift:baseline;text-anchor:start;white-space:normal;clip-rule:nonzero;display:inline;overflow:visible;visibility:visible;opacity:1;isolation:auto;mix-blend-mode:normal;color-interpolation:sRGB;color-interpolation-filters:linearRGB;solid-color:#000000;solid-opacity:1;fill:#824c22;fill-opacity:1;fill-rule:nonzero;stroke:none;stroke-width:1.10000002;stroke-linecap:butt;stroke-linejoin:miter;stroke-miterlimit:4;stroke-dasharray:none;stroke-dashoffset:0;stroke-opacity:1;color-rendering:auto;image-rendering:auto;shape-rendering:auto;text-rendering:auto;enable-background:accumulate" />
      <path
         inkscape:connector-curvature="0"
         id="path5987"
         d="m 340.14705,468.07629 -1.08789,0.16211 c 0,0 2.41241,16.29971 3.08984,24.79493 0.67901,8.51513 0.50905,14.45544 0.92774,26.35351 0.41972,11.92704 1.88356,16.15112 1.23828,24.45898 l -1.85742,23.9043 c -0.0903,1.16275 -0.83679,2.92992 -1.89258,4.96484 -1.05579,2.03492 -2.40351,4.35914 -3.64063,6.78711 -2.47423,4.85595 -4.57835,10.16614 -2.78125,14.56641 l 10.51953,25.75976 c 1.77387,4.34337 1.46946,10.08538 0.53711,15.70703 -0.93234,5.62166 -2.47162,11.09932 -3.04687,15.02539 l -3.09375,21.11915 1.08789,0.1582 3.09375,-21.11719 c 0.55539,-3.79053 2.09959,-9.30585 3.04492,-15.00586 0.94534,-5.70001 1.31317,-11.60967 -0.60351,-16.30273 l -10.52149,-25.75977 c -1.56006,-3.81985 0.30578,-8.8668 2.74414,-13.65234 1.21919,-2.39277 2.56252,-4.70891 3.63672,-6.7793 1.0742,-2.07039 1.89614,-3.87345 2.01367,-5.38672 l 1.85547,-23.90234 c 0.6574,-8.46392 -0.81947,-12.73831 -1.23633,-24.58399 -0.41786,-11.87462 -0.24629,-17.8323 -0.92968,-26.40234 -0.68499,-8.58995 -3.09766,-24.86914 -3.09766,-24.86914 z"
         style="color:#000000;font-style:normal;font-variant:normal;font-weight:normal;font-stretch:normal;font-size:medium;line-height:normal;font-family:sans-serif;text-indent:0;text-align:start;text-decoration:none;text-decoration-line:none;text-decoration-style:solid;text-decoration-color:#000000;letter-spacing:normal;word-spacing:normal;text-transform:none;direction:ltr;block-progression:tb;writing-mode:lr-tb;baseline-shift:baseline;text-anchor:start;white-space:normal;clip-rule:nonzero;display:inline;overflow:visible;visibility:visible;opacity:1;isolation:auto;mix-blend-mode:normal;color-interpolation:sRGB;color-interpolation-filters:linearRGB;solid-color:#000000;solid-opacity:1;fill:#824c22;fill-opacity:1;fill-rule:nonzero;stroke:none;stroke-width:1.10000002;stroke-linecap:butt;stroke-linejoin:miter;stroke-miterlimit:4;stroke-dasharray:none;stroke-dashoffset:0;stroke-opacity:1;color-rendering:auto;image-rendering:auto;shape-rendering:auto;text-rendering:auto;enable-background:accumulate" />
      <path
         inkscape:connector-curvature="0"
         id="path5989"
         d="m 264.72713,468.34973 -1.58399,0.23438 c 0,0 2.41218,16.30366 3.08789,24.77734 0.66603,8.35233 -1.66276,17.64433 -1.23828,26.35351 0.42674,8.75551 4.31992,16.77068 3.71485,24.73242 -0.61599,8.1053 -3.47568,15.75499 -5.2461,24.10743 -1.7214,8.12122 -6.12471,16.45836 -5.27343,25.68945 0.43228,4.68757 2.76526,8.79749 5.10546,12.91015 2.34021,4.11266 4.69538,8.2324 5.41993,12.89844 1.46657,9.44461 -1.48571,22.02349 -2.47852,30.80664 -0.97729,8.64578 -3.08789,21.07422 -3.08789,21.07422 l 1.57617,0.26953 c 0,0 2.11465,-12.4331 3.10156,-21.16406 0.97139,-8.59359 4.01895,-21.26185 2.47071,-31.23242 -0.78286,-5.04155 -3.27406,-9.33585 -5.61133,-13.44336 -2.33727,-4.10751 -4.51298,-8.02221 -4.9043,-12.26563 -0.79592,-8.63089 3.46061,-16.77814 5.24805,-25.21093 1.73844,-8.20161 4.6351,-15.919 5.27344,-24.31836 0.64924,-8.54294 -3.30564,-16.61597 -3.71094,-24.93164 -0.40756,-8.36199 1.9327,-17.6695 1.23633,-26.40234 -0.68671,-8.61149 -3.09961,-24.88477 -3.09961,-24.88477 z"
         style="color:#000000;font-style:normal;font-variant:normal;font-weight:normal;font-stretch:normal;font-size:medium;line-height:normal;font-family:sans-serif;text-indent:0;text-align:start;text-decoration:none;text-decoration-line:none;text-decoration-style:solid;text-decoration-color:#000000;letter-spacing:normal;word-spacing:normal;text-transform:none;direction:ltr;block-progression:tb;writing-mode:lr-tb;baseline-shift:baseline;text-anchor:start;white-space:normal;clip-rule:nonzero;display:inline;overflow:visible;visibility:visible;opacity:1;isolation:auto;mix-blend-mode:normal;color-interpolation:sRGB;color-interpolation-filters:linearRGB;solid-color:#000000;solid-opacity:1;fill:#3a1d10;fill-opacity:1;fill-rule:nonzero;stroke:none;stroke-width:1.60000002;stroke-linecap:butt;stroke-linejoin:miter;stroke-miterlimit:4;stroke-dasharray:none;stroke-dashoffset:0;stroke-opacity:1;color-rendering:auto;image-rendering:auto;shape-rendering:auto;text-rendering:auto;enable-background:accumulate" />
      <path
         sodipodi:nodetypes="ccssssssssssccssssssssssc"
         inkscape:connector-curvature="0"
         id="path5991"
         d="m 214.70369,467.79504 -1.53711,0.72461 c 0,0 1.81927,3.87398 3.45703,8.88282 1.63777,5.00883 3.04621,11.16505 2.35156,15.45117 -1.37743,8.49922 -2.28757,17.9292 -1.86718,26.55468 0.42042,8.62597 2.16373,16.63553 1.54883,24.72656 -0.64103,8.43475 2.06668,16.59335 0.36342,24.62896 -1.71934,8.11149 -6.78479,16.23449 -5.93178,25.48432 0.83868,9.09453 4.08783,15.91916 5.57617,25.50391 0.76698,4.9393 2.41201,10.60689 3.73242,16.11328 1.32041,5.50639 2.29955,10.85422 1.83203,14.99024 -0.46512,4.11477 -2.81718,9.43672 -5.07031,13.66601 -2.25313,4.2293 -4.38086,7.38086 -4.38086,7.38086 l 1.4082,0.95117 c 0,0 2.17718,-3.2188 4.47461,-7.53125 2.29743,-4.31245 4.74083,-9.70375 5.25781,-14.27734 0.51459,-4.55236 -0.53605,-10.01692 -1.86914,-15.57617 -1.33308,-5.55926 -2.96465,-11.21022 -3.70507,-15.97852 -1.52649,-9.83043 -4.75399,-16.631 -5.5625,-25.39844 -0.7942,-8.61213 3.45463,-16.75278 5.24414,-25.19531 1.80559,-8.51841 0.36926,-16.4535 0.98256,-24.52341 0.63942,-8.41365 -1.7897,-16.60169 -2.20131,-25.0469 -0.41163,-8.44568 0.48119,-17.78174 1.8457,-26.20117 0.79013,-4.87531 -0.7411,-11.13547 -2.41406,-16.25195 -1.67297,-5.11649 -3.53516,-9.07813 -3.53516,-9.07813 z"
         style="color:#000000;font-style:normal;font-variant:normal;font-weight:normal;font-stretch:normal;font-size:medium;line-height:normal;font-family:sans-serif;text-indent:0;text-align:start;text-decoration:none;text-decoration-line:none;text-decoration-style:solid;text-decoration-color:#000000;letter-spacing:normal;word-spacing:normal;text-transform:none;direction:ltr;block-progression:tb;writing-mode:lr-tb;baseline-shift:baseline;text-anchor:start;white-space:normal;clip-rule:nonzero;display:inline;overflow:visible;visibility:visible;opacity:1;isolation:auto;mix-blend-mode:normal;color-interpolation:sRGB;color-interpolation-filters:linearRGB;solid-color:#000000;solid-opacity:1;fill:#3a1d10;fill-opacity:1;fill-rule:nonzero;stroke:none;stroke-width:1.70000005;stroke-linecap:butt;stroke-linejoin:miter;stroke-miterlimit:4;stroke-dasharray:none;stroke-dashoffset:0;stroke-opacity:1;color-rendering:auto;image-rendering:auto;shape-rendering:auto;text-rendering:auto;enable-background:accumulate" />
    </g>
    <g
       id="g6702"
       transform="translate(132.72674,61.689895)"
       style="fill:none;stroke:#000000;stroke-opacity:1;stroke-width:3;stroke-miterlimit:4;stroke-dasharray:none">
      <path
         sodipodi:nodetypes="ccccscscc"
         inkscape:connector-curvature="0"
         id="path6704"
         d="m 252.57206,467.96833 -35.4953,19.34404 -41.84939,-19.80578 -52.01815,0 c 0,0 -3.48315,60.87939 3.52886,110.8511 7.01201,49.97172 88.16338,90.80795 88.16338,90.80795 0,0 81.34517,-62.97781 86.1626,-93.63766 7.83265,-49.84968 3.52611,-107.55965 3.52611,-107.55965 z"
         style="fill:none;fill-opacity:1;fill-rule:evenodd;stroke:#000000;stroke-width:3;stroke-linecap:butt;stroke-linejoin:miter;stroke-opacity:1;stroke-miterlimit:4;stroke-dasharray:none" />
    </g>
  </g>
</svg>
